<svg width="113" height="109" viewBox="0 0 113 109" fill="none" xmlns="http://www.w3.org/2000/svg">
<path fill-rule="evenodd" clip-rule="evenodd" d="M96 37.0002H72V17.0002C72.8392 9.00315 67.037 1.83986 59.04 1.00016C58.0302 0.880155 57.0098 0.880155 56 1.00016H49.72C46.97 1.0755 44.6184 2.99957 44 5.68016V6.16016L40 31.5202L25.84 53.0002H0V109H76C105.76 109 112 91.6002 112 77.0002V53.0002C112.839 45.0032 107.037 37.8399 99.04 37.0002C98.0302 36.8802 97.0098 36.8802 96 37.0002V37.0002ZM24 101H8V61.0002H24V101ZM104 77.0002C104 93.3602 95.12 101 76 101H32V58.2002L48 34.4802L50.92 13.0002L51.48 9.00016H56C61.76 9.00016 64 11.2402 64 17.0002V45.0002H96C101.76 45.0002 104 47.2402 104 53.0002V77.0002Z" fill="#3481B9"/>
</svg>