<svg width="113" height="109" viewBox="0 0 113 109" fill="none" xmlns="http://www.w3.org/2000/svg">
<path fill-rule="evenodd" clip-rule="evenodd" d="M0.584564 106.098C1.31223 107.292 2.61032 108.019 4.00833 108.016H108.008C109.406 108.019 110.704 107.292 111.432 106.098C112.16 104.904 112.211 103.417 111.568 102.176L59.5683 2.17616C58.8839 0.840293 57.5093 0 56.0083 0C54.5074 0 53.1327 0.840293 52.4483 2.17616L0.448331 102.176C-0.194757 103.417 -0.143106 104.904 0.584564 106.098ZM56.0083 12.6962L101.408 100.016H10.6083L56.0083 12.6962ZM56 80C52.6863 80 50 82.6863 50 86C50 89.3137 52.6863 92 56 92C59.3137 92 62 89.3137 62 86C62 82.6863 59.3137 80 56 80ZM60 36H52V72H60V36Z" fill="#FFC633"/>
</svg>