<svg width="34" height="34" viewBox="0 0 34 34" fill="none" xmlns="http://www.w3.org/2000/svg">
<path d="M14.8803 0L12.7606 5.04489C12.3367 5.17207 11.9551 5.38404 11.5736 5.59601L6.52868 3.47631L3.47631 6.52868L5.59601 11.5736C5.38404 11.9975 5.21446 12.3367 5.04489 12.7606L0 14.8803V19.1197L5.04489 21.2394C5.21446 21.6633 5.38404 22.0025 5.59601 22.4264L3.47631 27.4713L6.52868 30.5237L11.5736 28.404C11.9551 28.5736 12.3367 28.7855 12.7606 28.9551L14.8803 34H19.1197L21.2394 28.9551C21.6209 28.7855 22.0449 28.616 22.4264 28.404L27.4713 30.5237L30.5237 27.4713L28.404 22.4264C28.5736 22.0449 28.7855 21.6209 28.9551 21.2394L34 19.1197V14.8803L28.9551 12.7606C28.8279 12.3791 28.616 11.9551 28.404 11.5736L30.5237 6.52868L27.4713 3.47631L22.4264 5.59601C22.0449 5.42643 21.6209 5.21446 21.2394 5.04489L19.1197 0L14.8803 0ZM17 10.5985C20.5187 10.5985 23.3591 13.4389 23.3591 16.9576C23.3591 20.4763 20.5187 23.3167 17 23.3167C13.4813 23.3167 10.6409 20.4763 10.6409 16.9576C10.6409 13.4389 13.4813 10.5985 17 10.5985Z" fill="#3481B9"/>
</svg>