<svg width="22" height="30" viewBox="0 0 22 30" fill="none" xmlns="http://www.w3.org/2000/svg">
<path fill-rule="evenodd" clip-rule="evenodd" d="M13.8688 0.444099L21.3063 7.8816C21.5161 8.071 21.6326 8.34276 21.625 8.62535V27.7504C21.625 28.924 20.6736 29.8754 19.5 29.8754H2.5C1.32639 29.8754 0.375 28.924 0.375 27.7504V2.25035C0.375 1.07674 1.32639 0.125349 2.5 0.125349H13.125C13.4076 0.117761 13.6794 0.234229 13.8688 0.444099ZM5.679 15H16.304V17.125H5.679V15ZM5.679 21.375H16.304V23.5H5.679V21.375ZM13.125 2.67535L19.075 8.62535H13.125V2.67535ZM2.5 27.7503H19.5V10.7503H13.125C11.9514 10.7503 11 9.79895 11 8.62535V2.25035H2.5V27.7503Z" fill="#3481B9"/>
</svg>